<svg xmlns="http://www.w3.org/2000/svg" viewBox="0 0 256 256" style="user-select: none; width: 100%; height: 100%; display: inline-block; fill: var(--token-16c59cf3-7050-4e49-99f2-d3d5e9adfbf8, rgb(255, 255, 255)) /* {&quot;name&quot;:&quot;White&quot;} */; color: var(--token-16c59cf3-7050-4e49-99f2-d3d5e9adfbf8, rgb(255, 255, 255)) /* {&quot;name&quot;:&quot;White&quot;} */; flex-shrink: 0;" focusable="false" color="var(--token-16c59cf3-7050-4e49-99f2-d3d5e9adfbf8, rgb(255, 255, 255)) /* {&quot;name&quot;:&quot;White&quot;} */" xmlns:xlink="http://www.w3.org/1999/xlink"><g color="var(--token-16c59cf3-7050-4e49-99f2-d3d5e9adfbf8, rgb(255, 255, 255)) /* {&quot;name&quot;:&quot;White&quot;} */" weight="thin"><path d="M164,72V200a4,4,0,0,1-8,0V72a4,4,0,0,1,8,0Zm36-44a4,4,0,0,0-4,4V200a4,4,0,0,0,8,0V32A4,4,0,0,0,200,28Zm-80,80a4,4,0,0,0-4,4v88a4,4,0,0,0,8,0V112A4,4,0,0,0,120,108ZM80,148a4,4,0,0,0-4,4v48a4,4,0,0,0,8,0V152A4,4,0,0,0,80,148ZM40,188a4,4,0,0,0-4,4v8a4,4,0,0,0,8,0v-8A4,4,0,0,0,40,188Z"></path></g></svg>