<svg xmlns="http://www.w3.org/2000/svg" viewBox="0 0 256 256" style="user-select: none; width: 100%; height: 100%; display: inline-block; fill: var(--token-16c59cf3-7050-4e49-99f2-d3d5e9adfbf8, rgb(255, 255, 255)) /* {&quot;name&quot;:&quot;White&quot;} */; color: var(--token-16c59cf3-7050-4e49-99f2-d3d5e9adfbf8, rgb(255, 255, 255)) /* {&quot;name&quot;:&quot;White&quot;} */; flex-shrink: 0;" focusable="false" color="var(--token-16c59cf3-7050-4e49-99f2-d3d5e9adfbf8, rgb(255, 255, 255)) /* {&quot;name&quot;:&quot;White&quot;} */" xmlns:xlink="http://www.w3.org/1999/xlink"><g color="var(--token-16c59cf3-7050-4e49-99f2-d3d5e9adfbf8, rgb(255, 255, 255)) /* {&quot;name&quot;:&quot;White&quot;} */" weight="thin"><path d="M208,84H172V56a44,44,0,0,0-88,0V84H48A12,12,0,0,0,36,96V208a12,12,0,0,0,12,12H208a12,12,0,0,0,12-12V96A12,12,0,0,0,208,84ZM92,56a36,36,0,0,1,72,0V84H92ZM212,208a4,4,0,0,1-4,4H48a4,4,0,0,1-4-4V96a4,4,0,0,1,4-4H208a4,4,0,0,1,4,4Z"></path></g></svg>