<svg xmlns="http://www.w3.org/2000/svg" viewBox="0 0 256 256" style="user-select: none; width: 100%; height: 100%; display: inline-block; fill: var(--token-16c59cf3-7050-4e49-99f2-d3d5e9adfbf8, rgb(255, 255, 255)) /* {&quot;name&quot;:&quot;White&quot;} */; color: var(--token-16c59cf3-7050-4e49-99f2-d3d5e9adfbf8, rgb(255, 255, 255)) /* {&quot;name&quot;:&quot;White&quot;} */; flex-shrink: 0;" focusable="false" color="var(--token-16c59cf3-7050-4e49-99f2-d3d5e9adfbf8, rgb(255, 255, 255)) /* {&quot;name&quot;:&quot;White&quot;} */" xmlns:xlink="http://www.w3.org/1999/xlink"><g color="var(--token-16c59cf3-7050-4e49-99f2-d3d5e9adfbf8, rgb(255, 255, 255)) /* {&quot;name&quot;:&quot;White&quot;} */" weight="thin"><path d="M224,52H32a4,4,0,0,0-4,4V192a12,12,0,0,0,12,12H216a12,12,0,0,0,12-12V56A4,4,0,0,0,224,52ZM36,108H84v40H36Zm56,0H220v40H92ZM220,60v40H36V60ZM36,192V156H84v40H40A4,4,0,0,1,36,192Zm180,4H92V156H220v36A4,4,0,0,1,216,196Z"></path></g></svg>