<svg xmlns="http://www.w3.org/2000/svg" xmlns:xlink="http://www.w3.org/1999/xlink" viewBox="0 0 99 24"><path d="M 36.703 7.09 C 36.703 5.842 37.733 5.034 39.519 5.034 C 41.35 5.034 42.562 5.889 42.997 7.829 L 45.722 7.829 C 45.172 4.387 42.655 2.909 39.587 2.909 C 36.039 2.909 34.07 4.941 34.07 7.298 C 34.07 13.605 43.501 10.301 43.501 14.736 C 43.501 16.145 42.38 17.093 40.252 17.093 C 38.168 17.093 36.864 16.122 36.429 14.343 L 33.751 14.343 C 34.391 17.624 36.771 19.218 40.228 19.218 C 43.638 19.218 46.134 17.485 46.134 14.39 C 46.134 7.968 36.703 11.225 36.703 7.09 Z M 48.43 18.917 L 50.879 18.917 L 50.879 11.687 C 50.879 9.977 51.978 8.337 53.809 8.337 C 55.48 8.337 56.258 9.423 56.258 11.202 L 56.258 18.917 L 58.684 18.917 L 58.684 10.694 C 58.684 7.783 57.105 6.281 54.564 6.281 C 52.985 6.281 51.703 6.928 50.879 8.245 L 50.879 2.285 L 48.43 2.285 Z M 63.974 10.624 C 64.204 9.238 65.051 8.361 66.63 8.361 C 68.507 8.361 69.33 9.331 69.33 11.133 L 69.33 11.409 C 67.134 11.433 65.486 11.572 63.86 12.126 C 62.029 12.749 61.113 13.997 61.113 15.683 C 61.113 18.04 62.807 19.218 65.28 19.218 C 66.744 19.218 68.324 18.571 69.354 17.115 C 69.377 17.809 69.446 18.455 69.628 18.917 L 72.192 18.917 C 71.917 18.248 71.78 17.392 71.78 15.915 L 71.78 11.109 C 71.78 8.244 70.132 6.28 66.813 6.28 C 63.769 6.28 61.914 7.898 61.526 10.623 L 63.974 10.623 Z M 63.585 15.591 C 63.585 14.181 64.639 13.143 69.33 13.096 L 69.33 13.651 C 69.335 14.616 68.957 15.543 68.282 16.224 C 67.606 16.906 66.69 17.285 65.737 17.277 C 64.433 17.277 63.586 16.63 63.586 15.591 Z M 77.3 24 L 77.3 17.508 C 78.079 18.639 79.223 19.218 80.619 19.218 C 83.801 19.218 85.792 16.908 85.792 12.727 C 85.792 8.707 83.846 6.281 80.619 6.281 C 79.223 6.281 78.079 6.928 77.3 8.084 L 77.3 6.605 L 74.851 6.605 L 74.851 23.999 L 77.3 23.999 Z M 80.321 8.361 C 82.199 8.361 83.297 9.932 83.297 12.727 C 83.297 15.568 82.244 17.139 80.322 17.139 C 78.399 17.139 77.3 15.544 77.3 12.727 C 77.3 9.909 78.353 8.361 80.321 8.361 Z M 99 14.897 L 96.437 14.897 C 96.025 16.423 94.926 17.162 93.37 17.162 C 91.378 17.162 90.211 15.753 90.073 13.235 L 98.909 13.235 L 98.909 12.634 C 98.909 8.684 96.78 6.281 93.255 6.281 C 89.776 6.281 87.579 8.592 87.579 12.773 C 87.579 16.792 89.776 19.218 93.37 19.218 C 96.231 19.218 98.337 17.763 99 14.898 Z M 93.255 8.337 C 94.994 8.337 96.071 9.469 96.368 11.548 L 90.142 11.548 C 90.439 9.47 91.493 8.337 93.255 8.337 Z" fill="rgb(255,255,255)"></path><path d="M 22.428 7.69 C 22.741 5.59 22.052 3.464 20.571 1.961 C 18.181 -0.471 14.358 -0.665 11.739 1.511 L 15.307 5.137 C 15.917 4.892 16.613 5.039 17.075 5.511 C 17.72 6.165 17.72 7.224 17.075 7.878 L 17.075 7.879 L 17.075 7.879 L 13.58 11.429 L 11.716 13.323 L 15.21 16.874 L 16.61 15.452 L 20.57 11.427 C 21.569 10.416 22.22 9.106 22.428 7.69 Z M 10.921 13.462 L 9.386 11.902 L 5.891 15.452 L 5.891 15.453 L 7.289 16.873 L 7.29 16.872 L 7.755 17.345 L 7.755 17.347 L 11.25 20.897 L 11.25 20.895 L 11.355 21.002 C 13.941 23.517 18.039 23.47 20.569 20.897 C 22.987 18.442 23.133 14.555 21.013 11.925 L 17.444 15.551 C 17.676 16.151 17.553 16.862 17.075 17.347 C 16.767 17.661 16.348 17.837 15.91 17.837 C 15.473 17.837 15.054 17.661 14.745 17.347 L 10.921 13.463 Z M 0.076 15.149 C -0.243 17.254 0.446 19.388 1.931 20.895 C 4.32 23.326 8.141 23.522 10.761 21.347 L 7.191 17.721 C 6.582 17.964 5.888 17.816 5.426 17.346 C 4.781 16.692 4.781 15.633 5.426 14.979 L 9.25 11.094 L 10.784 9.536 L 7.29 5.985 L 5.89 7.406 L 5.425 7.879 L 5.424 7.879 L 1.929 11.427 L 1.929 11.429 L 1.876 11.484 C 0.912 12.484 0.282 13.767 0.076 15.149 Z M 5.056 7.306 L 1.487 10.932 C -0.635 8.302 -0.486 4.416 1.929 1.963 C 3.163 0.708 4.84 0.002 6.589 0.002 C 8.338 0.002 10.015 0.708 11.25 1.963 L 15.21 5.986 L 16.607 7.406 L 13.113 10.957 L 11.249 9.063 L 7.754 5.513 C 7.446 5.199 7.026 5.023 6.589 5.023 C 6.152 5.023 5.732 5.199 5.424 5.513 C 4.961 5.984 4.816 6.688 5.055 7.307 Z" fill="rgb(255,255,255)"></path></svg>